<svg xmlns="http://www.w3.org/2000/svg" xmlns:xlink="http://www.w3.org/1999/xlink" viewBox="0,0,256,256" width="50px" height="50px" fill-rule="nonzero"><g transform=""><g fill="#27ae60" fill-rule="nonzero" stroke="none" stroke-width="1" stroke-linecap="butt" stroke-linejoin="miter" stroke-miterlimit="10" stroke-dasharray="" stroke-dashoffset="0" font-family="none" font-weight="none" font-size="none" text-anchor="none" style="mix-blend-mode: normal"><g transform="scale(2.56,2.56)"><path d="M73.44336,14.00195c-0.36806,0.01194 -0.73651,0.05953 -1.10352,0.14453l-51.82227,12.03125c-1.471,0.341 -2.72339,1.24116 -3.52539,2.53516c-0.57,0.919 -0.85733,1.95848 -0.86133,3.02148c0,0.011 -0.00586,0.02025 -0.00586,0.03125v44.46875c0,3.179 2.57428,5.76367 5.73828,5.76367h56.39844c3.165,0.001 5.73828,-2.58467 5.73828,-5.76367v-34.85156c0,-1.126 -0.31697,-2.21916 -0.91797,-3.16016c-0.388,-0.608 -0.87989,-1.13545 -1.46289,-1.56445c-0.289,-0.213 -0.59978,-0.39964 -0.92578,-0.55664c-0.623,-0.299 -1.28656,-0.48192 -1.97656,-0.54492c-0.072,-0.017 -0.14856,-0.02539 -0.22656,-0.02539h-20.31641l18.0957,-4.28906c3.028,-0.704 4.92456,-3.74997 4.22656,-6.79297l-1.39062,-6.05469c-0.341,-1.483 -1.23167,-2.74002 -2.51367,-3.54101c-0.954,-0.597 -2.04425,-0.88738 -3.14844,-0.85156zM73.50391,16.00195c0.71077,-0.02334 1.41234,0.16212 2.02734,0.54688c0.827,0.517 1.404,1.33197 1.625,2.29297l1.39063,6.05469c0.452,1.971 -0.77142,3.94344 -2.73242,4.39844l-26.29492,6.23242l0.00195,0.00391h-27.6582c-1.781,0 -3.26958,-1.26136 -3.64258,-2.94336c-0.025,-0.116 -0.03383,-0.23361 -0.04883,-0.34961c-0.017,-0.132 -0.03606,-0.26244 -0.03906,-0.39844c-0.014,-0.729 0.17059,-1.44431 0.55859,-2.07031c0.521,-0.84 1.3293,-1.42353 2.2793,-1.64453l51.82227,-12.0293c0.23575,-0.05475 0.47401,-0.08597 0.71094,-0.09375zM18.125,36.13672c1.005,0.869 2.31228,1.39453 3.73828,1.39453h38.01172v6.71875c0,0.276 0.224,0.5 0.5,0.5c0.276,0 0.5,-0.224 0.5,-0.5v-6.71875h17.4707c0.027,0.004 0.05503,0.00777 0.08203,0.00977c0.49,0.031 0.96139,0.15423 1.40039,0.36523c0.214,0.103 0.41647,0.22428 0.60547,0.36328c0.383,0.282 0.70789,0.6293 0.96289,1.0293c0.395,0.62 0.60352,1.33899 0.60352,2.08398v9.11523h-9.25c-0.276,0 -0.5,0.224 -0.5,0.5c0,0.276 0.224,0.5 0.5,0.5h9.25v13.39258h-3.75c-0.276,0 -0.5,0.224 -0.5,0.5c0,0.276 0.224,0.5 0.5,0.5h3.75v10.34375c0,2.076 -1.67728,3.76563 -3.73828,3.76563h-56.39844c-2.062,0 -3.73828,-1.68963 -3.73828,-3.76562v-11.93359c0.952,0.977 2.27328,1.58984 3.73828,1.58984h31.63672c0.276,0 0.5,-0.224 0.5,-0.5c0,-0.276 -0.224,-0.5 -0.5,-0.5h-31.63672c-1.628,0 -3.02928,-0.93983 -3.73828,-2.29883v-12.68164c0.951,0.977 2.27428,1.58594 3.73828,1.58594h3.88672c0.276,0 0.5,-0.224 0.5,-0.5c0,-0.276 -0.224,-0.5 -0.5,-0.5h-3.88672c-1.628,0 -3.02928,-0.93787 -3.73828,-2.29687zM30.5,50.49805c-0.276,0 -0.5,0.224 -0.5,0.5c0,0.276 0.224,0.5 0.5,0.5h8.75v11.62695c0,0.276 0.224,0.5 0.5,0.5c0.276,0 0.5,-0.224 0.5,-0.5v-11.62695h25.125c0.276,0 0.5,-0.224 0.5,-0.5c0,-0.276 -0.224,-0.5 -0.5,-0.5zM68.5,50.49805c-0.276,0 -0.5,0.224 -0.5,0.5c0,0.276 0.22305,0.499 0.49805,0.5l2.125,0.00195h0.00195c0.275,0 0.5,-0.224 0.5,-0.5c0,-0.276 -0.22305,-0.5 -0.49805,-0.5l-2.125,-0.00195zM56.75,64.89063c-0.276,0 -0.5,0.224 -0.5,0.5c0,0.276 0.224,0.5 0.5,0.5h15.625c0.276,0 0.5,-0.224 0.5,-0.5c0,-0.276 -0.224,-0.5 -0.5,-0.5z"/></g></g></g></svg>